<svg xmlns="http://www.w3.org/2000/svg" width="900" height="390" viewBox="0 0 900 390">
<rect width="100%" height="100%" fill="white"/>
<text x="20" y="25" font-family="sans-serif" font-size="18" font-weight="bold">Contextual linguistic screening: precision and recall</text>
<line x1="180" y1="305.0" x2="840" y2="305.0" stroke="#dddddd"/>
<text x="168" y="309.0" text-anchor="end" font-family="sans-serif" font-size="11">0.0</text>
<line x1="180" y1="253.0" x2="840" y2="253.0" stroke="#dddddd"/>
<text x="168" y="257.0" text-anchor="end" font-family="sans-serif" font-size="11">0.2</text>
<line x1="180" y1="201.0" x2="840" y2="201.0" stroke="#dddddd"/>
<text x="168" y="205.0" text-anchor="end" font-family="sans-serif" font-size="11">0.4</text>
<line x1="180" y1="149.0" x2="840" y2="149.0" stroke="#dddddd"/>
<text x="168" y="153.0" text-anchor="end" font-family="sans-serif" font-size="11">0.6</text>
<line x1="180" y1="97.0" x2="840" y2="97.0" stroke="#dddddd"/>
<text x="168" y="101.0" text-anchor="end" font-family="sans-serif" font-size="11">0.8</text>
<line x1="180" y1="45.0" x2="840" y2="45.0" stroke="#dddddd"/>
<text x="168" y="49.0" text-anchor="end" font-family="sans-serif" font-size="11">1.0</text>
<rect x="195.7" y="45.0" width="39.3" height="260.0" fill="#4472c4"/>
<rect x="235.0" y="110.0" width="39.3" height="195.0" fill="#ed7d31"/>
<text x="235.0" y="323" text-anchor="middle" font-family="sans-serif" font-size="10" transform="rotate(25 235.0 323)">subjective language</text>
<rect x="305.7" y="45.0" width="39.3" height="260.0" fill="#4472c4"/>
<rect x="345.0" y="102.8" width="39.3" height="202.2" fill="#ed7d31"/>
<text x="345.0" y="323" text-anchor="middle" font-family="sans-serif" font-size="10" transform="rotate(25 345.0 323)">ambiguous adjective adverb</text>
<rect x="415.7" y="82.1" width="39.3" height="222.9" fill="#4472c4"/>
<rect x="455.0" y="82.1" width="39.3" height="222.9" fill="#ed7d31"/>
<text x="455.0" y="323" text-anchor="middle" font-family="sans-serif" font-size="10" transform="rotate(25 455.0 323)">nonverifiable term</text>
<rect x="525.7" y="45.0" width="39.3" height="260.0" fill="#4472c4"/>
<rect x="565.0" y="230.7" width="39.3" height="74.3" fill="#ed7d31"/>
<text x="565.0" y="323" text-anchor="middle" font-family="sans-serif" font-size="10" transform="rotate(25 565.0 323)">vague pronoun</text>
<rect x="635.7" y="45.0" width="39.3" height="260.0" fill="#4472c4"/>
<rect x="675.0" y="45.0" width="39.3" height="260.0" fill="#ed7d31"/>
<text x="675.0" y="323" text-anchor="middle" font-family="sans-serif" font-size="10" transform="rotate(25 675.0 323)">uncertain verb</text>
<rect x="745.7" y="97.0" width="39.3" height="208.0" fill="#4472c4"/>
<rect x="785.0" y="97.0" width="39.3" height="208.0" fill="#ed7d31"/>
<text x="785.0" y="323" text-anchor="middle" font-family="sans-serif" font-size="10" transform="rotate(25 785.0 323)">polysemy</text>
<rect x="690" y="20" width="12" height="12" fill="#4472c4"/><text x="708" y="31" font-family="sans-serif" font-size="11">precision</text>
<rect x="770" y="20" width="12" height="12" fill="#ed7d31"/><text x="788" y="31" font-family="sans-serif" font-size="11">recall</text>
<text x="20" y="375" font-family="sans-serif" font-size="11">Secondary diagnostic against ARTA markers; contextual heuristic, not expert-validated model efficacy.</text>
</svg>
